# xmcd CD database file
#
# Track frame offsets:
#	150
#	13322
#	25710
#	35787
#	47539
#	57650
#	66332
#	77515
#	89082
#	99510
#	111420
#	122607
#	133045
#	141900
#	158312
#	169180
#	181692
#	195342
#	205177
#	216875
#	230410
#	243235
#	254267
#	266515
#	276027
#
# Disc length: 3844 seconds
#
# Revision: 2
# Processed by: cddbd v1.5.1PL0 Copyright (c) Steve Scherf et al.
# Submitted via: CDex 1.51
#
DISCID=610f0219
DTITLE=Various Artist - The Best Ever Country Revival - Vol.2
DYEAR=2000
DGENRE=Country
TTITLE0=Ruby Do'nt Take Your Love To Town - Kenny Rogers
TTITLE1=Charlie Rich - Behind Closed Doors
TTITLE2=Glen Campbell - Gentle On My Mind
TTITLE3=Johnny Preston - Running Bear
TTITLE4=Don Williams - Take My Hand For A While
TTITLE5=Roger Millar/England Swings
TTITLE6=Don Gibson - Sea Of Heartbreak
TTITLE7=Patsy Cline - Lonely Street
TTITLE8=George Hamilton Iv /Albilene
TTITLE9=Skeeter Davis - End Of The World
TTITLE10=Conway Twitty - Its Only Make Believe
TTITLE11=Little Jimmy Dickens /May The Bird Of Paradise
TTITLE12=Bob Luman - Let's Think About Living
TTITLE13=Slim Whitman - The Three Bells
TTITLE14=Hank Locklin /Send Me The Pillow
TTITLE15=George Jones - She Thinks I Still Care
TTITLE16=Willie Nelson /A Moment Is'nt Very Long
TTITLE17=Merle Haggard - Mama Tried
TTITLE18=Ned Miller - Do What You Do Do Well
TTITLE19=Ray Price - Heartaches By The Number
TTITLE20=Bill Anderson - Still
TTITLE21=Waylon Jennings /Dream Baby
TTITLE22=Johnny Cash - Folsom Prison Blues
TTITLE23=Skeeter Davis - Am I That Easy To Forget
TTITLE24=Wanda Jackson /Crazy
EXTD=YEAR: 2000
EXTT0=
EXTT1=
EXTT2=
EXTT3=
EXTT4=
EXTT5=
EXTT6=
EXTT7=
EXTT8=
EXTT9=
EXTT10=
EXTT11=
EXTT12=
EXTT13=
EXTT14=
EXTT15=
EXTT16=
EXTT17=
EXTT18=
EXTT19=
EXTT20=
EXTT21=
EXTT22=
EXTT23=
EXTT24=
PLAYORDER=
